<svg width="422" height="278" viewBox="0 0 422 278" fill="none" xmlns="http://www.w3.org/2000/svg">
<g clip-path="url(#clip0_224_496)">
<path d="M360.458 0.743439C362.04 1.89539 363.019 3.31146 363.572 5.20333C363.837 7.55581 363.283 9.66619 362.664 11.9128C362.566 12.2774 362.469 12.6421 362.372 13.0069C362.164 13.7877 361.954 14.5678 361.742 15.3475C361.402 16.597 361.067 17.848 360.732 19.0991C360.324 20.6276 359.914 22.1557 359.503 23.6835C358.784 26.3532 358.074 29.0252 357.371 31.6992C357.321 31.8912 357.27 32.0831 357.218 32.2809C356.964 33.2459 356.711 34.2109 356.457 35.1759C356.001 36.9143 355.542 38.6522 355.084 40.3901C354.879 41.1682 354.674 41.9464 354.469 42.7246C353.869 45.0004 353.27 47.2762 352.67 49.5519C352.277 51.0434 351.883 52.5349 351.49 54.0264C351.173 55.2303 350.856 56.4342 350.538 57.638C350.39 58.2019 350.241 58.7658 350.092 59.3296C349.904 60.046 349.715 60.7624 349.525 61.4786C349.094 63.1138 348.666 64.7499 348.248 66.3887C348.136 66.8282 348.023 67.2677 347.91 67.7072C347.808 68.1083 347.707 68.5098 347.607 68.9113C347.515 69.2674 347.515 69.2674 347.422 69.6306C347.37 69.8357 347.319 70.0407 347.265 70.252C347.084 70.8106 346.869 71.2483 346.538 71.7301C346.005 72.0003 345.537 71.9425 344.942 71.9458C344.816 71.9468 344.69 71.9477 344.56 71.9486C344.141 71.9514 343.723 71.9526 343.304 71.9536C343.014 71.9547 342.724 71.9558 342.434 71.9568C341.825 71.9588 341.217 71.9599 340.608 71.9605C339.827 71.9616 339.046 71.966 338.265 71.9713C337.666 71.9748 337.067 71.9757 336.467 71.976C336.179 71.9766 335.891 71.9781 335.603 71.9805C335.201 71.9837 334.799 71.9833 334.397 71.9821C334.168 71.9828 333.939 71.9835 333.703 71.9842C333.526 71.9616 333.349 71.9391 333.167 71.9159C332.755 71.2884 332.78 71.0567 332.891 70.3359C333.091 69.338 333.363 68.3596 333.63 67.3783C333.698 67.124 333.766 66.8697 333.834 66.6153C333.983 66.0623 334.131 65.5094 334.281 64.9567C334.653 63.577 335.022 62.1965 335.392 60.816C335.526 60.3145 335.661 59.8131 335.795 59.3116C336.862 55.3273 337.912 51.3384 338.962 47.3494C339.12 46.747 339.279 46.1446 339.438 45.5421C340.156 42.8121 340.875 40.082 341.593 37.3517C341.64 37.1737 341.686 36.9956 341.735 36.8121C342.516 33.8434 343.296 30.8746 344.076 27.9057C344.111 27.7744 344.145 27.6432 344.181 27.5079C344.347 26.8736 344.514 26.2394 344.68 25.605C344.976 24.48 345.271 23.3552 345.57 22.2311C345.707 21.7149 345.844 21.1985 345.98 20.6822C346.075 20.3236 346.171 19.9652 346.266 19.6068C346.352 19.2827 346.352 19.2827 346.44 18.9521C346.49 18.7635 346.54 18.5749 346.592 18.3805C346.723 17.8311 346.82 17.2834 346.904 16.7247C342.107 17.9623 337.323 19.2484 332.542 20.5486C331.532 20.8231 330.523 21.0972 329.513 21.3713C327.21 21.9966 324.908 22.6225 322.605 23.2485C322.008 23.411 321.41 23.5735 320.812 23.7361C317.448 24.6506 314.084 25.5654 310.721 26.4805C306.038 27.7545 301.354 29.0264 296.671 30.2967C291.42 31.7207 286.17 33.1467 280.921 34.5759C280.766 34.6181 280.611 34.6602 280.452 34.7037C278.738 35.1703 277.025 35.6369 275.311 36.1036C272.402 36.896 269.492 37.688 266.583 38.48C266.274 38.5641 265.965 38.6482 265.656 38.7323C258.462 40.6905 251.268 42.647 244.074 44.6032C241.455 45.3151 238.837 46.027 236.219 46.739C236.037 46.7887 235.854 46.8385 235.665 46.8897C234.742 47.1407 233.819 47.3917 232.896 47.6427C231.232 48.0954 229.567 48.5481 227.902 49.0008C226.977 49.2525 226.052 49.5041 225.126 49.7558C224.756 49.8565 224.386 49.9571 224.016 50.0578C223.833 50.1076 223.649 50.1574 223.461 50.2088C186.262 60.3248 186.262 60.3248 185.707 60.4758C185.337 60.5765 184.967 60.6771 184.596 60.7778C183.671 61.0295 182.745 61.2813 181.819 61.5331C180.159 61.9844 178.5 62.4358 176.84 62.8871C175.922 63.1366 175.005 63.3861 174.088 63.6356C173.906 63.6851 173.724 63.7346 173.536 63.7856C171.028 64.4676 168.52 65.1496 166.012 65.8316C164.614 66.2119 163.215 66.5923 161.816 66.9726C160.692 67.2783 159.568 67.584 158.444 67.8897C157.917 68.033 157.39 68.1763 156.863 68.3196C156.185 68.5039 155.507 68.6882 154.829 68.8725C153.295 69.2895 151.761 69.7071 150.228 70.1262C149.528 70.3175 148.828 70.5085 148.128 70.6996C147.797 70.7899 147.467 70.8804 147.136 70.9709C146.681 71.0954 146.227 71.2195 145.772 71.3436C145.639 71.3802 145.505 71.4168 145.368 71.4546C145.023 71.5487 144.676 71.6395 144.33 71.7301C144.203 71.7638 144.076 71.7975 143.945 71.8323C143.157 71.9563 142.378 71.9421 141.582 71.9407C141.396 71.9412 141.21 71.9416 141.018 71.942C140.394 71.9432 139.77 71.943 139.146 71.9429C138.699 71.9434 138.252 71.9441 137.805 71.9448C136.716 71.9463 135.628 71.9468 134.539 71.9469C133.655 71.947 132.771 71.9474 131.886 71.948C129.38 71.9496 126.874 71.9505 124.367 71.9504C124.232 71.9503 124.097 71.9503 123.958 71.9503C123.823 71.9503 123.688 71.9503 123.548 71.9503C121.354 71.9502 119.159 71.952 116.965 71.9546C114.713 71.9573 112.46 71.9586 110.208 71.9584C108.943 71.9584 107.678 71.9589 106.413 71.9609C105.225 71.9627 104.037 71.9627 102.848 71.9613C102.411 71.9611 101.974 71.9616 101.536 71.9627C100.942 71.9641 100.347 71.9633 99.7527 71.9618C99.5777 71.9628 99.4026 71.9638 99.2223 71.9647C99.0639 71.9639 98.9055 71.963 98.7423 71.9622C98.6049 71.9622 98.4676 71.9622 98.3261 71.9623C97.9904 71.9159 97.9904 71.9159 97.6241 71.5442C97.5439 70.9054 97.5439 70.9054 97.6241 70.2434C98.3464 69.6698 99.1869 69.4686 100.06 69.2388C100.212 69.1974 100.365 69.156 100.522 69.1134C101.031 68.9755 101.541 68.8397 102.051 68.7038C102.416 68.6056 102.78 68.5072 103.145 68.4087C103.929 68.1971 104.713 67.9863 105.498 67.7762C106.751 67.4406 108.004 67.103 109.257 66.765C110.558 66.4142 111.859 66.0635 113.16 65.7135C117.068 64.662 120.974 63.6013 124.879 62.5378C125.976 62.2389 127.074 61.9403 128.172 61.6417C128.354 61.5921 128.536 61.5425 128.724 61.4914C129.092 61.3912 129.461 61.291 129.829 61.1908C130.749 60.9407 131.668 60.6906 132.588 60.4404C136.143 59.4731 139.699 58.5058 143.254 57.5388C143.628 57.4373 144.001 57.3358 144.374 57.2343C149.952 55.7172 155.53 54.2023 161.109 52.6893C166.173 51.3158 171.237 49.9392 176.299 48.5603C181.437 47.1611 186.576 45.7654 191.715 44.3716C196.679 43.0254 201.642 41.6765 206.604 40.325C211.897 38.8834 217.191 37.4452 222.486 36.0093C227.449 34.6631 232.413 33.3142 237.375 31.9627C242.503 30.5661 247.631 29.1726 252.76 27.7815C257.847 26.4018 262.934 25.0201 268.02 23.6352C268.172 23.5938 268.324 23.5523 268.481 23.5096C268.945 23.3832 269.409 23.2569 269.873 23.1306C270.5 22.9598 271.127 22.789 271.755 22.6183C271.911 22.5756 272.068 22.5329 272.229 22.489C276.088 21.4383 279.947 20.3888 283.806 19.3395C284.367 19.1869 284.928 19.0344 285.489 18.8819C288.323 18.1112 291.157 17.3405 293.991 16.5699C296.82 15.8008 299.648 15.0316 302.477 14.2625C302.662 14.2122 302.847 14.1619 303.037 14.1101C308.315 12.6749 313.592 11.2392 318.87 9.8026C319.022 9.7611 319.174 9.71961 319.331 9.67687C322.256 8.88074 325.181 8.08453 328.105 7.28819C334.799 5.46542 341.494 3.64315 348.189 1.82494C348.619 1.70823 349.048 1.5915 349.478 1.47476C350.144 1.29401 350.809 1.11332 351.474 0.932691C351.832 0.835488 352.19 0.738229 352.548 0.640969C352.867 0.554499 352.867 0.554499 353.192 0.466283C353.376 0.416304 353.56 0.366324 353.75 0.314829C355.874 -0.25468 358.502 -0.410715 360.458 0.743439Z" fill="#A0D638"/>
<path d="M91.1249 100.878C91.3272 100.877 91.5296 100.876 91.738 100.875C91.9557 100.874 92.1734 100.874 92.3977 100.874C92.7344 100.873 92.7344 100.873 93.0779 100.872C93.5526 100.871 94.0272 100.871 94.5019 100.871C95.2282 100.87 95.9546 100.867 96.6809 100.863C97.142 100.863 97.6031 100.862 98.0643 100.862C98.3903 100.86 98.3903 100.86 98.7228 100.858C98.9258 100.859 99.1287 100.859 99.3377 100.86C99.5157 100.86 99.6937 100.859 99.877 100.859C100.656 100.932 101.142 101.106 101.656 101.709C102.217 102.655 102.54 103.727 102.904 104.761C102.988 104.999 103.073 105.236 103.158 105.473C103.339 105.979 103.519 106.484 103.698 106.99C103.98 107.789 104.265 108.586 104.55 109.384C104.838 110.191 105.126 110.999 105.414 111.806C106.219 114.065 107.035 116.319 107.858 118.571C107.982 118.909 108.105 119.247 108.229 119.586C108.474 120.258 108.719 120.929 108.964 121.601C109.592 123.32 110.219 125.04 110.845 126.76C111.046 127.311 111.247 127.861 111.447 128.412C111.737 129.206 112.026 130.001 112.315 130.796C112.446 131.156 112.578 131.516 112.71 131.876C112.811 132.153 112.811 132.153 112.915 132.436C112.97 132.586 113.025 132.737 113.082 132.892C113.193 133.239 113.193 133.239 113.193 133.611C113.891 133.226 114.368 132.814 114.887 132.206C115.03 132.041 115.172 131.876 115.319 131.706C115.464 131.537 115.608 131.369 115.757 131.195C116.031 130.885 116.306 130.575 116.581 130.266C116.989 129.806 117.397 129.346 117.805 128.885C118.638 127.944 119.477 127.009 120.32 126.078C120.983 125.346 121.638 124.608 122.292 123.868C122.774 123.326 123.26 122.789 123.747 122.252C124.293 121.651 124.834 121.047 125.361 120.429C126.017 119.661 126.698 118.918 127.379 118.173C128.215 117.257 129.039 116.33 129.86 115.4C130.825 114.308 131.796 113.222 132.774 112.141C133.58 111.251 134.377 110.353 135.172 109.453C136.137 108.361 137.108 107.275 138.086 106.195C139.043 105.137 139.988 104.068 140.933 102.998C141.079 102.832 141.226 102.667 141.377 102.496C141.508 102.347 141.64 102.198 141.776 102.044C141.893 101.914 142.011 101.783 142.132 101.648C142.202 101.55 142.273 101.451 142.345 101.349C142.862 100.953 143.4 101.018 144.022 101.028C144.158 101.028 144.293 101.028 144.433 101.027C144.882 101.028 145.331 101.032 145.78 101.037C146.092 101.038 146.403 101.038 146.714 101.039C147.533 101.041 148.353 101.047 149.172 101.053C150.008 101.058 150.844 101.061 151.68 101.064C153.321 101.07 154.961 101.079 156.602 101.091C156.35 102.684 155.967 104.226 155.546 105.781C155.476 106.042 155.406 106.303 155.336 106.565C155.186 107.127 155.035 107.689 154.883 108.252C154.511 109.635 154.141 111.019 153.77 112.403C153.639 112.894 153.508 113.384 153.376 113.875C152.441 117.371 151.519 120.871 150.599 124.372C149.301 129.303 147.998 134.233 146.683 139.16C145.188 144.76 143.706 150.362 142.229 155.967C142.065 156.588 141.902 157.21 141.738 157.831C141.478 158.818 141.218 159.805 140.958 160.791C140.863 161.154 140.767 161.516 140.672 161.878C140.538 162.385 140.405 162.891 140.272 163.398C140.229 163.559 140.186 163.72 140.143 163.886C139.909 164.773 139.682 165.66 139.46 166.55C139.412 166.743 139.363 166.936 139.313 167.136C139.22 167.507 139.128 167.878 139.037 168.25C138.472 170.498 138.472 170.498 137.769 171.029C137.266 171.179 136.828 171.197 136.303 171.2C136.089 171.201 135.874 171.203 135.653 171.205C135.307 171.205 135.307 171.205 134.954 171.204C134.597 171.206 134.597 171.206 134.234 171.207C133.732 171.208 133.23 171.208 132.728 171.207C132.084 171.206 131.441 171.209 130.798 171.214C130.183 171.217 129.569 171.216 128.955 171.216C128.724 171.218 128.493 171.219 128.255 171.221C127.934 171.219 127.934 171.219 127.606 171.218C127.323 171.218 127.323 171.218 127.035 171.218C126.563 171.148 126.563 171.148 126.222 170.905C125.922 170.452 126.013 170.081 126.099 169.562C126.304 168.605 126.558 167.664 126.815 166.721C126.881 166.479 126.946 166.238 127.011 165.996C127.152 165.471 127.294 164.946 127.436 164.422C127.791 163.116 128.142 161.809 128.493 160.502C128.62 160.03 128.747 159.557 128.875 159.085C129.867 155.399 130.844 151.709 131.821 148.019C131.967 147.467 132.113 146.915 132.259 146.363C134.922 136.314 134.922 136.314 137.567 126.259C137.689 125.797 137.814 125.336 137.941 124.875C137.975 124.75 138.009 124.625 138.044 124.496C138.139 124.145 138.236 123.795 138.332 123.444C138.453 122.902 138.498 122.455 138.469 121.904C138.391 121.996 138.313 122.088 138.233 122.183C137.689 122.823 137.14 123.448 136.546 124.041C136.096 124.489 135.675 124.95 135.264 125.435C134.754 126.035 134.218 126.593 133.661 127.148C133.325 127.494 133.012 127.854 132.699 128.222C132.19 128.822 131.653 129.38 131.097 129.935C130.761 130.282 130.448 130.641 130.135 131.009C129.625 131.61 129.089 132.168 128.532 132.723C128.197 133.069 127.883 133.429 127.571 133.797C127.061 134.397 126.525 134.955 125.968 135.51C125.633 135.857 125.319 136.216 125.007 136.584C124.595 137.069 124.174 137.53 123.725 137.978C123.279 138.422 122.861 138.879 122.454 139.36C121.897 140.016 121.305 140.622 120.697 141.229C120.231 141.71 119.801 142.218 119.368 142.729C118.962 143.193 118.528 143.624 118.092 144.058C117.757 144.405 117.443 144.764 117.131 145.132C116.621 145.733 116.085 146.291 115.528 146.846C115.192 147.192 114.879 147.552 114.567 147.92C114.057 148.52 113.521 149.078 112.964 149.633C112.628 149.98 112.315 150.339 112.002 150.707C111.494 151.306 110.96 151.863 110.403 152.415C109.93 152.906 109.5 153.431 109.068 153.959C108.979 154.051 108.889 154.143 108.797 154.238C108.676 154.238 108.555 154.238 108.431 154.238C108.386 154.123 108.342 154.009 108.296 153.89C107.727 152.419 107.157 150.948 106.588 149.476C106.542 149.357 106.495 149.238 106.448 149.115C105.31 146.176 104.171 143.237 103.027 140.301C101.871 137.333 100.72 134.363 99.5703 131.393C99.4855 131.174 99.4006 130.955 99.3132 130.729C99.1468 130.299 98.9804 129.869 98.8141 129.44C98.6528 129.023 98.4915 128.606 98.3301 128.19C97.9324 127.162 97.5361 126.135 97.1426 125.106C97.0663 124.907 96.99 124.707 96.9113 124.502C96.7668 124.125 96.6226 123.747 96.4789 123.37C96.4152 123.203 96.3515 123.037 96.2859 122.866C96.2302 122.72 96.1744 122.574 96.117 122.423C96.0009 122.092 96.0009 122.092 95.7926 121.904C94.7504 125.844 93.7084 129.784 92.6666 133.725C92.1171 135.803 91.5676 137.881 91.0179 139.959C90.6188 141.468 90.2198 142.977 89.8209 144.486C89.5707 145.433 89.3204 146.379 89.0699 147.325C88.0401 151.215 87.0139 155.106 86.0073 159.002C85.8716 159.527 85.7355 160.053 85.5994 160.578C85.5555 160.747 85.5117 160.916 85.4664 161.091C85.3794 161.426 85.2924 161.762 85.2053 162.098C84.9557 163.061 84.708 164.025 84.4617 164.989C84.3112 165.576 84.159 166.164 84.0063 166.751C83.9366 167.02 83.8677 167.29 83.7995 167.559C83.7067 167.927 83.6111 168.293 83.5153 168.66C83.4368 168.965 83.4368 168.965 83.3567 169.278C83.094 170.019 82.775 170.784 82.0557 171.148C81.7135 171.167 81.3706 171.174 81.0279 171.175C80.8128 171.177 80.5976 171.178 80.3759 171.179C80.1426 171.179 79.9093 171.179 79.6689 171.18C79.3112 171.181 79.3112 171.181 78.9462 171.182C78.4412 171.183 77.9362 171.183 77.4311 171.183C76.7832 171.183 76.1353 171.185 75.4873 171.189C74.8702 171.191 74.2531 171.191 73.636 171.191C73.4027 171.193 73.1694 171.194 72.929 171.195C72.7138 171.195 72.4987 171.194 72.277 171.194C71.9919 171.194 71.9919 171.194 71.7011 171.194C71.2492 171.148 71.2492 171.148 70.8829 170.777C70.7371 169.369 71.1528 168.09 71.5233 166.744C71.5929 166.486 71.6623 166.228 71.7316 165.97C71.8821 165.41 72.0337 164.85 72.1862 164.291C72.434 163.382 72.6793 162.472 72.924 161.562C73.1873 160.583 73.4507 159.605 73.7148 158.626C74.6521 155.154 75.5729 151.677 76.4925 148.199C76.781 147.108 77.0698 146.018 77.3588 144.927C77.407 144.745 77.4552 144.563 77.5049 144.375C77.6027 144.006 77.7005 143.637 77.7983 143.267C78.0438 142.34 78.2893 141.413 78.5348 140.486C79.3654 137.349 80.1963 134.213 81.0274 131.076C81.2671 130.171 81.5068 129.266 81.7464 128.362C82.7208 124.684 83.6956 121.005 84.6725 117.328C84.8069 116.822 84.9413 116.316 85.0756 115.81C85.1631 115.481 85.2506 115.151 85.3381 114.822C85.3807 114.661 85.4233 114.501 85.4672 114.335C85.7126 113.412 85.958 112.488 86.2036 111.565C86.3541 110.999 86.5044 110.433 86.6547 109.867C86.7608 109.468 86.8672 109.069 86.9736 108.67C87.2832 107.506 87.5873 106.341 87.8743 105.172C87.9234 104.974 87.9724 104.775 88.023 104.571C88.111 104.213 88.1972 103.855 88.2812 103.496C88.5126 102.556 88.7591 101.836 89.3821 101.091C89.9588 100.88 90.516 100.881 91.1249 100.878Z" fill="white"/>
<path d="M20.795 100.886C20.9149 100.886 21.0349 100.887 21.1585 100.887C21.5602 100.888 21.962 100.89 22.3637 100.892C22.652 100.893 22.9403 100.894 23.2286 100.895C24.0125 100.898 24.7964 100.901 25.5803 100.905C26.0715 100.908 26.5627 100.91 27.0539 100.913C28.7718 100.921 30.4897 100.93 32.2076 100.94C33.801 100.949 35.3945 100.956 36.9879 100.961C38.3607 100.966 39.7335 100.973 41.1063 100.981C41.9239 100.986 42.7415 100.99 43.5592 100.992C50.7858 101.011 57.9319 101.621 63.4598 106.924C66.6202 110.239 67.7063 114.253 67.6726 118.752C67.6029 121.47 67.0237 123.764 65.7543 126.178C65.6304 126.417 65.6304 126.417 65.5039 126.661C62.8166 131.514 57.8299 134.084 52.75 135.655C53.2809 136.082 53.8182 136.401 54.4213 136.712C58.099 138.731 60.8386 142.167 62.1255 146.183C63.4051 150.69 62.6504 155.165 60.4858 159.228C59.9037 160.255 59.2104 161.163 58.428 162.043C58.3382 162.144 58.2485 162.245 58.1561 162.349C56.7518 163.901 55.2275 165.179 53.4826 166.317C53.1873 166.511 53.1873 166.511 52.8859 166.71C46.7752 170.484 39.3444 171.181 32.3511 171.173C32.0033 171.173 31.6556 171.173 31.3078 171.174C30.3721 171.174 29.4364 171.174 28.5007 171.173C27.519 171.173 26.5373 171.173 25.5556 171.174C23.9101 171.174 22.2646 171.174 20.6192 171.173C18.7161 171.172 16.813 171.172 14.9099 171.173C13.2732 171.174 11.6365 171.174 9.99971 171.174C9.02322 171.173 8.04673 171.173 7.07025 171.174C6.15438 171.174 5.23851 171.174 4.32264 171.173C3.98617 171.173 3.64969 171.173 3.31321 171.173C2.85516 171.174 2.39713 171.173 1.93909 171.172C1.80502 171.173 1.67095 171.173 1.53281 171.173C0.970594 171.171 0.537916 171.145 0 170.963C0.609402 168.212 1.32289 165.489 2.03668 162.765C2.14255 162.361 2.24826 161.957 2.35393 161.552C4.2221 154.405 6.11899 147.266 8.01387 140.126C8.84039 137.012 9.66618 133.897 10.4916 130.782C10.7293 129.886 10.967 128.989 11.2048 128.092C12.2174 124.274 13.2276 120.455 14.2311 116.634C14.3782 116.074 14.5254 115.514 14.6726 114.954C14.7689 114.588 14.8652 114.221 14.9614 113.855C15.0085 113.676 15.0555 113.497 15.104 113.313C15.3782 112.269 15.6518 111.226 15.9249 110.182C16.0934 109.539 16.2624 108.896 16.4316 108.252C16.5088 107.958 16.5858 107.664 16.6625 107.37C17.0467 105.898 17.4442 104.43 17.8769 102.971C17.9127 102.846 17.9485 102.721 17.9853 102.593C18.3247 101.474 18.3247 101.474 18.8655 101.091C19.5089 100.874 20.1206 100.884 20.795 100.886ZM27.6658 112.303C27.3552 112.804 27.2296 113.35 27.0876 113.918C27.0503 114.061 27.0129 114.203 26.9745 114.35C26.8864 114.687 26.7991 115.024 26.7124 115.361C26.5373 116.038 26.3583 116.713 26.1786 117.389C25.8511 118.621 25.5262 119.854 25.203 121.088C25.0138 121.81 24.8242 122.531 24.6334 123.252C24.446 123.961 24.2598 124.67 24.0744 125.379C24.0044 125.645 23.934 125.912 23.8632 126.179C23.5028 127.537 23.1791 128.859 23.0781 130.266C23.5085 130.484 23.7625 130.476 24.2422 130.476C24.41 130.477 24.5777 130.477 24.7506 130.478C24.9353 130.477 25.12 130.477 25.3104 130.477C25.5047 130.477 25.6991 130.477 25.8993 130.477C26.5463 130.478 27.1933 130.477 27.8403 130.475C28.0617 130.475 28.2832 130.474 28.5114 130.474C30.1803 130.471 31.8493 130.463 33.5182 130.452C33.7006 130.451 33.7006 130.451 33.8866 130.45C35.4529 130.439 37.019 130.424 38.5851 130.403C39.0415 130.397 39.4979 130.392 39.9544 130.388C44.9539 130.339 49.4346 129.779 53.1163 125.992C54.7269 124.162 55.4158 122.014 55.2799 119.569C55.0639 117.465 54.4444 115.727 52.9103 114.238C49.6457 111.645 44.4608 112.025 40.5456 112.017C40.3686 112.017 40.1916 112.016 40.0093 112.016C39.0764 112.013 38.1435 112.011 37.2106 112.01C36.2475 112.009 35.2845 112.005 34.3214 111.999C33.5789 111.996 32.8363 111.995 32.0937 111.995C31.7384 111.994 31.383 111.993 31.0277 111.99C30.5332 111.987 30.0389 111.987 29.5444 111.989C29.3977 111.987 29.251 111.985 29.0999 111.983C28.3389 111.983 28.3389 111.983 27.6658 112.303ZM20.1476 141.044C19.7694 141.769 19.4911 142.45 19.29 143.244C19.236 143.454 19.1821 143.664 19.1266 143.88C19.0699 144.106 19.0133 144.332 18.9549 144.565C18.8936 144.805 18.8322 145.045 18.7707 145.285C18.6085 145.919 18.4477 146.553 18.2873 147.187C18.0351 148.184 17.7815 149.18 17.527 150.176C17.4639 150.423 17.401 150.67 17.3381 150.916C16.9911 152.278 16.6329 153.636 16.2457 154.986C16.2114 155.106 16.1771 155.226 16.1418 155.349C15.9788 155.917 15.8137 156.485 15.6458 157.051C15.5876 157.252 15.5293 157.452 15.4693 157.659C15.4176 157.834 15.3659 158.008 15.3126 158.188C15.1918 158.746 15.1704 159.243 15.2023 159.813C15.4946 160.11 15.7994 160.023 16.2045 160.024C16.3816 160.024 16.5587 160.025 16.7411 160.026C16.9371 160.026 17.1331 160.026 17.335 160.026C17.5402 160.026 17.7455 160.027 17.9569 160.028C18.6409 160.029 19.3248 160.03 20.0088 160.03C20.4847 160.031 20.9607 160.031 21.4367 160.032C22.4385 160.033 23.4403 160.033 24.4421 160.033C25.5916 160.033 26.7411 160.035 27.8906 160.038C29.002 160.041 30.1134 160.041 31.2249 160.041C31.6943 160.041 32.1638 160.042 32.6333 160.044C38.1027 160.059 43.5576 159.992 47.6959 155.853C49.4534 154.003 50.4214 151.976 50.427 149.392C50.3846 147.185 49.3469 145.329 47.8161 143.808C44.1652 140.7 39.1267 141.015 34.6537 141.026C34.2341 141.026 33.8146 141.027 33.395 141.027C32.2981 141.028 31.2011 141.029 30.1042 141.031C28.9819 141.033 27.8597 141.034 26.7374 141.035C24.5408 141.037 22.3442 141.04 20.1476 141.044Z" fill="white"/>
<path d="M175.991 100.862C176.167 100.862 176.342 100.862 176.523 100.862C176.81 100.865 176.81 100.865 177.102 100.868C177.306 100.868 177.511 100.868 177.721 100.869C178.407 100.871 179.092 100.875 179.778 100.88C180.269 100.882 180.76 100.884 181.251 100.885C182.308 100.889 183.366 100.894 184.424 100.9C185.953 100.909 187.482 100.916 189.012 100.922C191.493 100.932 193.974 100.944 196.455 100.957C198.865 100.969 201.275 100.981 203.685 100.991C203.834 100.992 203.982 100.992 204.135 100.993C204.881 100.996 205.626 101 206.371 101.003C212.554 101.03 218.737 101.06 224.92 101.091C224.862 101.42 224.804 101.748 224.745 102.077C224.696 102.352 224.696 102.352 224.647 102.632C224.551 103.149 224.438 103.655 224.302 104.163C224.234 104.423 224.234 104.423 224.163 104.689C224.115 104.868 224.066 105.047 224.016 105.232C223.94 105.517 223.94 105.517 223.862 105.808C223.755 106.206 223.647 106.603 223.539 107C223.374 107.61 223.212 108.221 223.05 108.832C222.945 109.219 222.84 109.607 222.734 109.994C222.686 110.177 222.638 110.36 222.589 110.548C222.542 110.716 222.496 110.884 222.448 111.058C222.408 111.206 222.368 111.354 222.327 111.507C222.173 111.869 222.173 111.869 221.623 112.241C221.115 112.278 220.626 112.294 220.118 112.292C219.885 112.294 219.885 112.294 219.647 112.296C219.125 112.299 218.603 112.299 218.08 112.3C217.707 112.302 217.333 112.304 216.96 112.306C215.944 112.311 214.928 112.314 213.912 112.316C212.85 112.319 211.789 112.324 210.728 112.329C208.718 112.337 206.708 112.344 204.697 112.35C202.409 112.357 200.121 112.367 197.833 112.376C193.125 112.395 188.417 112.412 183.709 112.427C183.621 112.66 183.534 112.893 183.447 113.127C183.398 113.257 183.35 113.387 183.299 113.52C183.089 114.112 182.931 114.715 182.773 115.323C182.721 115.521 182.721 115.521 182.668 115.724C182.555 116.156 182.443 116.589 182.33 117.022C182.251 117.327 182.171 117.631 182.092 117.936C181.883 118.735 181.674 119.535 181.467 120.335C181.135 121.612 180.802 122.888 180.468 124.164C180.353 124.606 180.239 125.048 180.124 125.49C180.052 125.767 179.979 126.043 179.907 126.32C179.876 126.44 179.846 126.559 179.814 126.682C179.498 127.887 179.13 129.076 178.764 130.266C178.935 130.266 179.106 130.265 179.283 130.265C183.447 130.257 187.611 130.251 191.774 130.247C193.788 130.245 195.802 130.242 197.815 130.238C199.57 130.234 201.324 130.232 203.079 130.231C204.008 130.231 204.938 130.23 205.867 130.227C206.742 130.224 207.616 130.224 208.49 130.224C208.811 130.224 209.133 130.223 209.454 130.222C209.892 130.22 210.33 130.22 210.767 130.221C210.895 130.22 211.024 130.219 211.156 130.218C211.819 130.222 212.079 130.253 212.648 130.638C212.548 132.076 212.188 133.364 211.767 134.738C211.268 136.394 210.804 138.042 210.448 139.736C210.244 140.374 209.992 140.75 209.535 141.23C208.886 141.45 208.372 141.44 207.686 141.44C207.553 141.441 207.42 141.441 207.283 141.441C206.836 141.443 206.389 141.442 205.942 141.442C205.622 141.443 205.301 141.443 204.981 141.444C204.291 141.446 203.602 141.447 202.912 141.447C201.821 141.448 200.731 141.451 199.64 141.455C199.267 141.456 198.894 141.457 198.521 141.458C198.334 141.459 198.147 141.46 197.955 141.46C195.415 141.468 192.876 141.474 190.337 141.476C188.625 141.478 186.913 141.482 185.201 141.489C184.294 141.493 183.388 141.495 182.481 141.494C181.629 141.494 180.777 141.496 179.925 141.501C179.611 141.503 179.298 141.503 178.985 141.501C178.558 141.5 178.132 141.502 177.705 141.507C177.466 141.507 177.227 141.507 176.981 141.508C176.283 141.617 176.072 141.782 175.65 142.345C175.456 142.8 175.456 142.8 175.341 143.31C175.291 143.504 175.242 143.698 175.19 143.897C175.139 144.107 175.088 144.316 175.036 144.532C174.98 144.751 174.924 144.97 174.867 145.195C174.718 145.784 174.571 146.373 174.424 146.963C174.153 148.052 173.875 149.139 173.599 150.226C173.539 150.463 173.479 150.699 173.417 150.943C172.89 153.013 172.313 155.065 171.685 157.105C171.624 157.308 171.563 157.511 171.5 157.719C171.448 157.889 171.395 158.058 171.341 158.232C171.242 158.762 171.277 159.114 171.437 159.627C172.021 159.923 172.653 159.842 173.294 159.842C173.528 159.844 173.528 159.844 173.767 159.845C174.292 159.848 174.817 159.85 175.343 159.851C175.718 159.853 176.093 159.855 176.469 159.857C177.49 159.862 178.512 159.866 179.534 159.869C180.601 159.873 181.667 159.878 182.734 159.883C184.755 159.893 186.777 159.901 188.798 159.909C191.099 159.918 193.399 159.928 195.7 159.939C200.434 159.96 205.167 159.98 209.901 159.999C209.784 160.505 209.667 161.01 209.55 161.516C209.517 161.658 209.484 161.801 209.45 161.947C209.215 162.963 208.97 163.976 208.709 164.985C208.67 165.135 208.632 165.286 208.592 165.441C208.512 165.752 208.431 166.062 208.351 166.372C208.228 166.847 208.106 167.323 207.984 167.798C207.905 168.103 207.826 168.408 207.747 168.713C207.712 168.854 207.676 168.995 207.639 169.14C207.3 170.434 207.3 170.434 206.97 170.963C206.533 171.185 206.265 171.172 205.777 171.173C205.514 171.174 205.514 171.174 205.246 171.175C205.052 171.175 204.858 171.175 204.659 171.175C204.454 171.175 204.249 171.176 204.038 171.176C203.347 171.178 202.656 171.178 201.964 171.178C201.471 171.179 200.977 171.18 200.484 171.181C199.139 171.184 197.795 171.185 196.451 171.186C195.612 171.186 194.774 171.187 193.935 171.188C191.614 171.19 189.293 171.192 186.972 171.193C186.749 171.193 186.749 171.193 186.522 171.193C186.373 171.193 186.224 171.193 186.071 171.193C185.769 171.193 185.467 171.193 185.165 171.193C185.015 171.193 184.866 171.193 184.711 171.193C182.284 171.194 179.856 171.197 177.428 171.202C174.938 171.206 172.447 171.208 169.957 171.208C168.558 171.209 167.159 171.21 165.759 171.213C164.568 171.216 163.377 171.217 162.186 171.215C161.578 171.215 160.97 171.215 160.362 171.217C159.704 171.22 159.046 171.219 158.387 171.217C158.097 171.219 158.097 171.219 157.801 171.221C157.625 171.22 157.45 171.219 157.269 171.218C157.041 171.218 157.041 171.218 156.808 171.218C156.319 171.131 156.153 171.001 155.869 170.591C155.902 169.133 156.329 167.752 156.71 166.355C156.78 166.097 156.849 165.839 156.918 165.581C157.068 165.022 157.218 164.464 157.369 163.905C157.615 162.998 157.859 162.089 158.102 161.181C158.187 160.863 158.273 160.545 158.358 160.227C158.401 160.067 158.444 159.907 158.488 159.742C158.621 159.244 158.755 158.747 158.889 158.25C159.869 154.599 160.837 150.944 161.804 147.289C162.046 146.375 162.288 145.461 162.53 144.547C162.628 144.178 162.726 143.808 162.824 143.439C162.872 143.256 162.921 143.072 162.971 142.883C163.118 142.326 163.266 141.769 163.413 141.213C164.04 138.846 164.667 136.479 165.294 134.113C165.436 133.576 165.579 133.04 165.721 132.503C165.815 132.146 165.91 131.788 166.005 131.43C166.052 131.253 166.099 131.077 166.147 130.894C166.382 130.007 166.618 129.119 166.853 128.231C167.917 124.22 168.978 120.208 170.032 116.194C170.363 114.937 170.694 113.68 171.025 112.423C171.342 111.216 171.659 110.008 171.975 108.801C172.17 108.055 172.367 107.31 172.563 106.565C172.654 106.219 172.744 105.873 172.835 105.528C172.958 105.053 173.083 104.58 173.209 104.106C173.244 103.969 173.279 103.832 173.316 103.691C173.54 102.847 173.777 102.05 174.185 101.277C174.8 100.957 175.306 100.859 175.991 100.862Z" fill="white"/>
<path d="M418.63 100.891C418.87 100.889 418.87 100.889 419.115 100.886C419.41 100.883 419.705 100.878 420.001 100.872C420.752 100.865 421.325 100.934 422 101.277C422.04 102.367 421.921 103.257 421.619 104.3C421.579 104.442 421.54 104.583 421.499 104.729C421.374 105.178 421.246 105.626 421.119 106.073C421.035 106.372 420.951 106.67 420.868 106.968C420.746 107.402 420.625 107.836 420.501 108.27C420.233 109.213 419.985 110.16 419.759 111.115C419.598 111.555 419.43 111.763 419.069 112.055C418.396 112.283 417.778 112.265 417.078 112.261C416.929 112.26 416.78 112.26 416.627 112.26C416.128 112.26 415.629 112.258 415.129 112.256C414.772 112.255 414.414 112.255 414.057 112.254C413.286 112.253 412.516 112.251 411.745 112.249C410.527 112.246 409.309 112.244 408.09 112.242C404.626 112.238 401.161 112.231 397.697 112.223C395.784 112.218 393.871 112.215 391.958 112.213C390.747 112.212 389.536 112.209 388.325 112.205C387.571 112.203 386.817 112.202 386.064 112.202C385.714 112.202 385.365 112.201 385.015 112.199C384.538 112.197 384.061 112.197 383.583 112.197C383.445 112.196 383.307 112.195 383.164 112.194C382.367 112.197 381.7 112.27 380.972 112.612C380.722 113.129 380.568 113.551 380.423 114.099C380.379 114.254 380.335 114.409 380.29 114.569C380.142 115.104 380.004 115.64 379.866 116.176C379.788 116.479 379.788 116.479 379.708 116.787C379.541 117.432 379.375 118.077 379.209 118.721C379.102 119.136 378.995 119.55 378.888 119.964C378.545 121.292 378.202 122.62 377.859 123.948C377.315 126.033 376.771 128.118 376.21 130.266C387.452 130.266 398.695 130.266 410.278 130.266C409.915 131.677 409.552 133.087 409.179 134.54C408.96 135.398 408.96 135.398 408.737 136.273C408.532 137.059 408.532 137.059 408.432 137.442C408.364 137.705 408.296 137.968 408.23 138.231C408.13 138.624 408.027 139.017 407.924 139.409C407.866 139.635 407.807 139.86 407.747 140.093C407.506 140.737 407.331 140.996 406.798 141.416C406.217 141.506 406.217 141.506 405.517 141.503C405.388 141.503 405.259 141.503 405.126 141.504C404.693 141.504 404.261 141.499 403.829 141.494C403.519 141.493 403.209 141.493 402.899 141.493C402.232 141.492 401.564 141.488 400.897 141.483C399.841 141.475 398.785 141.472 397.729 141.469C396.058 141.465 394.386 141.458 392.715 141.448C389.725 141.432 386.734 141.42 383.744 141.411C382.695 141.408 381.646 141.403 380.597 141.396C379.943 141.392 379.289 141.389 378.635 141.387C378.333 141.386 378.03 141.384 377.728 141.382C377.314 141.378 376.9 141.377 376.485 141.376C376.254 141.375 376.023 141.374 375.784 141.372C374.839 141.433 373.939 141.52 373.214 142.181C372.845 142.838 372.663 143.489 372.496 144.219C372.418 144.536 372.34 144.854 372.262 145.172C372.22 145.344 372.178 145.517 372.135 145.694C371.883 146.708 371.606 147.715 371.333 148.723C371.214 149.164 371.095 149.605 370.976 150.046C370.794 150.721 370.611 151.396 370.429 152.071C369.153 155.888 369.153 155.888 368.517 159.813C368.709 159.813 368.901 159.812 369.098 159.812C373.761 159.804 378.423 159.797 383.085 159.794C385.34 159.792 387.594 159.789 389.849 159.785C391.814 159.781 393.779 159.779 395.743 159.778C396.784 159.777 397.825 159.776 398.865 159.774C399.844 159.771 400.824 159.77 401.803 159.771C402.162 159.771 402.522 159.77 402.882 159.769C403.372 159.767 403.863 159.767 404.353 159.768C404.567 159.767 404.567 159.767 404.786 159.765C406.393 159.774 406.393 159.774 406.981 160.37C407.12 161.69 406.677 162.882 406.306 164.133C405.743 166.045 405.743 166.045 405.247 167.975C405.208 168.136 405.17 168.298 405.13 168.464C405.061 168.758 404.995 169.053 404.932 169.348C404.793 169.935 404.644 170.353 404.252 170.813C403.406 171.313 402.641 171.249 401.678 171.239C401.473 171.24 401.269 171.241 401.058 171.241C400.37 171.243 399.683 171.239 398.996 171.236C398.504 171.236 398.011 171.236 397.519 171.237C396.321 171.238 395.122 171.235 393.923 171.231C392.528 171.227 391.133 171.226 389.738 171.226C387.249 171.225 384.76 171.221 382.272 171.215C379.855 171.209 377.439 171.205 375.022 171.203C374.873 171.203 374.724 171.203 374.571 171.203C373.972 171.203 373.374 171.202 372.775 171.202C370.474 171.201 368.173 171.198 365.872 171.194C365.177 171.193 364.481 171.193 363.785 171.192C362.323 171.19 360.86 171.188 359.397 171.184C358.792 171.182 358.187 171.181 357.582 171.181C356.927 171.18 356.272 171.178 355.618 171.176C355.425 171.176 355.232 171.176 355.033 171.176C354.859 171.175 354.685 171.174 354.505 171.173C354.354 171.173 354.202 171.173 354.047 171.172C353.681 171.148 353.681 171.148 353.315 170.963C353.194 169.315 353.644 167.847 354.076 166.279C354.158 165.975 354.239 165.671 354.321 165.367C354.497 164.712 354.675 164.057 354.853 163.403C355.141 162.35 355.425 161.296 355.708 160.243C356.008 159.13 356.307 158.018 356.608 156.906C357.643 153.076 358.66 149.241 359.674 145.406C359.915 144.497 360.155 143.588 360.396 142.68C361.538 138.366 362.678 134.051 363.815 129.736C364.071 128.764 364.327 127.791 364.584 126.819C364.799 126.004 365.014 125.19 365.228 124.375C365.271 124.213 365.314 124.05 365.359 123.882C365.949 121.644 366.536 119.405 367.122 117.166C367.563 115.484 368.004 113.803 368.445 112.122C368.765 110.905 369.084 109.687 369.402 108.469C369.598 107.715 369.796 106.962 369.995 106.209C370.087 105.858 370.179 105.507 370.27 105.156C370.395 104.675 370.522 104.193 370.649 103.712C370.703 103.502 370.703 103.502 370.758 103.288C370.975 102.477 371.215 101.699 371.814 101.091C372.395 101.07 372.971 101.062 373.551 101.062C373.736 101.061 373.921 101.06 374.111 101.059C374.735 101.056 375.359 101.054 375.983 101.053C376.429 101.051 376.874 101.049 377.32 101.047C378.282 101.043 379.245 101.04 380.207 101.037C381.603 101.033 382.998 101.027 384.394 101.022C386.663 101.013 388.932 101.005 391.2 100.998C393.396 100.99 395.592 100.983 397.788 100.974C397.923 100.974 398.058 100.973 398.197 100.973C398.738 100.971 399.28 100.969 399.822 100.967C403.995 100.951 408.169 100.936 412.342 100.921C412.777 100.92 413.213 100.919 413.649 100.917C413.955 100.916 413.955 100.916 414.267 100.915C414.564 100.914 414.564 100.914 414.867 100.913C415.248 100.912 415.629 100.911 416.01 100.91C416.884 100.908 417.756 100.904 418.63 100.891Z" fill="white"/>
<path d="M288.477 106.666C288.648 106.812 288.819 106.958 288.995 107.109C290.539 108.482 291.818 110.025 293.056 111.683C293.137 111.792 293.219 111.901 293.303 112.013C294.683 113.886 294.683 113.886 294.521 115.214C294.263 115.56 294.263 115.56 293.88 115.829C293.655 115.99 293.655 115.99 293.426 116.153C292.637 116.668 291.843 117.175 291.043 117.673C290.31 118.132 289.603 118.607 288.912 119.128C288.147 119.701 287.376 120.261 286.588 120.8C286.482 120.876 286.377 120.952 286.269 121.029C285.762 121.37 285.407 121.53 284.796 121.558C284.076 121.271 283.745 120.794 283.314 120.173C283.138 119.934 282.962 119.696 282.784 119.458C282.696 119.338 282.607 119.218 282.515 119.094C279.396 114.989 275.257 112.395 270.194 111.65C263.256 110.783 257.079 112.439 251.538 116.706C250.435 117.583 249.387 118.517 248.365 119.488C248.191 119.652 248.017 119.816 247.838 119.985C245.53 122.215 243.774 124.797 242.32 127.664C242.262 127.777 242.204 127.89 242.144 128.006C240.651 130.923 239.836 134.083 239.39 137.328C239.372 137.451 239.355 137.573 239.337 137.7C238.642 143.16 239.242 149.25 242.652 153.739C242.903 154.033 243.159 154.323 243.419 154.61C243.642 154.861 243.642 154.861 243.869 155.118C246.859 158.333 251.267 160.377 255.634 160.579C263.083 160.779 268.943 158.435 274.688 153.636C275.161 153.266 275.425 153.138 276.022 153.123C276.968 153.566 277.588 154.341 278.277 155.109C279.55 156.506 280.858 157.861 282.189 159.201C282.295 159.308 282.402 159.415 282.511 159.526C282.751 159.765 282.995 160.001 283.239 160.236C283.531 160.556 283.531 160.556 283.669 161.067C283.326 162.576 281.487 163.66 280.315 164.54C280.154 164.661 279.994 164.782 279.828 164.906C278.486 165.906 277.119 166.814 275.655 167.618C275.542 167.68 275.429 167.742 275.313 167.807C266.622 172.535 255.928 173.798 246.434 170.924C241.618 169.374 237.29 166.768 233.712 163.158C233.578 163.023 233.578 163.023 233.442 162.886C230.128 159.504 228.003 155.143 226.935 150.521C226.897 150.358 226.858 150.195 226.819 150.026C225.735 145.141 225.715 139.441 226.752 134.54C226.798 134.309 226.798 134.309 226.844 134.074C228.326 126.671 231.738 119.665 236.828 114.125C237.153 113.769 237.459 113.404 237.764 113.03C240.526 109.846 243.982 107.222 247.632 105.179C247.762 105.105 247.892 105.03 248.026 104.954C260.158 98.0323 277.418 97.1296 288.477 106.666Z" fill="white"/>
<path d="M305.51 100.882C305.7 100.881 305.89 100.881 306.086 100.88C306.295 100.881 306.505 100.881 306.721 100.881C306.943 100.881 307.165 100.881 307.394 100.881C308.011 100.88 308.629 100.88 309.247 100.881C309.912 100.881 310.578 100.88 311.243 100.88C312.548 100.879 313.852 100.879 315.157 100.88C316.217 100.88 317.277 100.88 318.337 100.88C318.563 100.88 318.563 100.88 318.793 100.88C319.099 100.88 319.405 100.88 319.711 100.88C322.584 100.879 325.456 100.88 328.329 100.881C330.795 100.882 333.261 100.882 335.726 100.881C338.588 100.88 341.45 100.879 344.311 100.88C344.617 100.88 344.922 100.88 345.227 100.88C345.377 100.88 345.527 100.88 345.681 100.88C346.74 100.88 347.799 100.88 348.858 100.88C350.148 100.879 351.438 100.879 352.728 100.88C353.387 100.881 354.045 100.881 354.704 100.88C355.417 100.88 356.13 100.88 356.843 100.881C357.053 100.881 357.262 100.881 357.477 100.88C357.668 100.881 357.858 100.881 358.055 100.882C358.22 100.882 358.384 100.882 358.554 100.882C358.97 100.904 359.327 100.972 359.726 101.091C360.017 102.172 359.759 103 359.465 104.045C359.417 104.22 359.37 104.396 359.321 104.578C359.168 105.139 359.012 105.699 358.856 106.259C358.753 106.634 358.651 107.009 358.549 107.383C358.276 108.385 358.001 109.385 357.711 110.382C357.668 110.538 357.625 110.693 357.581 110.853C357.537 111.002 357.493 111.15 357.448 111.303C357.411 111.435 357.373 111.566 357.334 111.702C357.107 112.165 356.86 112.338 356.429 112.612C356.017 112.682 356.017 112.682 355.56 112.681C355.386 112.683 355.212 112.684 355.032 112.685C354.843 112.684 354.653 112.682 354.457 112.681C354.156 112.682 354.156 112.682 353.849 112.683C353.413 112.684 352.977 112.684 352.541 112.683C351.851 112.681 351.161 112.683 350.472 112.686C348.759 112.692 347.046 112.694 345.334 112.693C343.887 112.693 342.439 112.696 340.992 112.702C340.312 112.704 339.632 112.702 338.952 112.7C338.535 112.701 338.119 112.703 337.703 112.705C337.513 112.704 337.324 112.702 337.128 112.7C336.145 112.7 336.145 112.7 335.267 113.095C334.926 113.663 334.765 114.186 334.599 114.83C334.565 114.96 334.531 115.09 334.495 115.224C334.381 115.658 334.271 116.093 334.161 116.528C334.08 116.84 333.998 117.152 333.917 117.463C333.742 118.135 333.568 118.807 333.395 119.48C333.118 120.56 332.838 121.639 332.556 122.718C332.262 123.848 331.968 124.978 331.675 126.108C330.758 129.642 329.822 133.17 328.882 136.697C328.473 138.231 328.064 139.766 327.656 141.301C327.564 141.646 327.472 141.992 327.38 142.338C326.69 144.932 326.002 147.527 325.315 150.122C325.16 150.709 325.005 151.295 324.85 151.881C324.252 154.14 324.252 154.14 323.655 156.4C323.169 158.24 322.681 160.079 322.19 161.918C321.933 162.882 321.68 163.847 321.43 164.814C321.267 165.439 321.102 166.064 320.937 166.689C320.86 166.98 320.784 167.272 320.71 167.564C320.608 167.964 320.502 168.363 320.395 168.761C320.337 168.986 320.278 169.21 320.218 169.441C319.903 170.224 319.45 170.767 318.698 171.148C318.337 171.165 317.975 171.17 317.614 171.169C317.387 171.169 317.159 171.169 316.925 171.169C316.676 171.168 316.427 171.167 316.178 171.166C315.924 171.166 315.67 171.166 315.416 171.166C314.747 171.165 314.078 171.163 313.409 171.161C312.726 171.159 312.043 171.158 311.361 171.157C310.021 171.155 308.682 171.152 307.342 171.148C307.604 169.461 308.024 167.825 308.465 166.179C308.542 165.888 308.619 165.597 308.696 165.306C308.862 164.68 309.029 164.053 309.196 163.427C309.465 162.417 309.734 161.406 310.002 160.395C310.336 159.139 310.67 157.883 311.004 156.627C311.627 154.284 312.249 151.94 312.869 149.596C313.058 148.882 313.247 148.169 313.436 147.455C313.482 147.278 313.529 147.101 313.578 146.919C314.343 144.027 315.11 141.136 315.877 138.244C316.174 137.122 316.472 136 316.769 134.878C317.268 132.994 317.768 131.11 318.268 129.225C318.503 128.341 318.737 127.457 318.972 126.573C319.189 125.752 319.407 124.931 319.625 124.11C319.708 123.797 319.792 123.483 319.875 123.17C320.306 121.543 320.745 119.919 321.204 118.3C321.243 118.162 321.282 118.023 321.323 117.88C321.505 117.234 321.69 116.588 321.878 115.942C321.942 115.717 322.005 115.493 322.071 115.261C322.128 115.067 322.184 114.873 322.242 114.672C322.405 113.984 322.405 113.984 322.361 112.798C311.753 112.706 311.753 112.706 300.931 112.612C301.344 110.312 301.344 110.312 301.552 109.526C301.599 109.349 301.645 109.173 301.693 108.991C301.766 108.717 301.766 108.717 301.841 108.437C301.919 108.146 301.919 108.146 301.997 107.85C302.105 107.444 302.214 107.039 302.323 106.634C302.489 106.012 302.654 105.39 302.818 104.768C302.924 104.373 303.029 103.977 303.135 103.582C303.184 103.396 303.233 103.21 303.284 103.019C303.33 102.847 303.377 102.675 303.424 102.498C303.465 102.347 303.505 102.196 303.547 102.04C303.679 101.648 303.679 101.648 304.045 101.091C304.589 100.907 304.942 100.882 305.51 100.882Z" fill="white"/>
<path d="M249.647 242.692C252.105 242.662 254.563 242.639 257.022 242.625C258.163 242.618 259.305 242.609 260.446 242.594C261.548 242.58 262.65 242.572 263.753 242.569C264.173 242.567 264.593 242.562 265.013 242.555C265.602 242.545 266.191 242.544 266.78 242.545C266.953 242.54 267.126 242.535 267.304 242.531C268.445 242.543 269.015 242.815 269.823 243.63C269.934 243.75 270.046 243.87 270.161 243.993C270.372 244.202 270.583 244.41 270.795 244.617C271.009 244.835 271.223 245.053 271.436 245.272C271.613 245.453 271.613 245.453 271.794 245.637C272.048 245.896 272.301 246.155 272.555 246.414C272.956 246.825 273.358 247.234 273.761 247.644C274.904 248.808 276.046 249.974 277.187 251.14C277.887 251.855 278.589 252.57 279.29 253.284C279.557 253.555 279.823 253.827 280.088 254.099C280.459 254.479 280.832 254.858 281.204 255.237C281.313 255.349 281.421 255.461 281.533 255.576C282.158 256.208 282.78 256.716 283.531 257.187C283.573 257.027 283.615 256.866 283.658 256.701C284.055 255.186 284.454 253.671 284.855 252.157C285.061 251.378 285.266 250.6 285.469 249.821C285.666 249.069 285.864 248.317 286.064 247.565C286.14 247.279 286.215 246.993 286.289 246.706C286.394 246.303 286.501 245.902 286.609 245.5C286.669 245.271 286.729 245.043 286.791 244.807C287.115 243.885 287.486 243.239 288.293 242.692C288.845 242.647 288.845 242.647 289.53 242.647C289.655 242.647 289.78 242.647 289.908 242.646C290.321 242.646 290.733 242.648 291.145 242.65C291.432 242.65 291.718 242.65 292.004 242.65C292.604 242.65 293.203 242.652 293.803 242.654C294.573 242.657 295.343 242.658 296.113 242.658C296.704 242.658 297.295 242.659 297.885 242.66C298.169 242.661 298.454 242.661 298.738 242.661C299.134 242.662 299.53 242.664 299.926 242.665C300.264 242.667 300.264 242.667 300.61 242.668C301.115 242.692 301.115 242.692 301.298 242.878C301.233 244.702 300.712 246.42 300.245 248.172C300.155 248.513 300.065 248.854 299.975 249.195C299.735 250.107 299.493 251.018 299.25 251.93C299.049 252.685 298.849 253.44 298.649 254.195C298.198 255.902 297.744 257.608 297.29 259.314C296.893 260.802 296.499 262.292 296.107 263.781C295.823 264.863 295.537 265.944 295.249 267.025C295.088 267.631 294.927 268.238 294.768 268.845C294.594 269.508 294.417 270.17 294.239 270.832C294.166 271.114 294.166 271.114 294.092 271.4C293.413 273.895 292.453 275.883 290.217 277.201C288.593 278.056 286.856 278.24 285.083 277.782C283.582 277.273 282.411 276.229 281.32 275.104C281.114 274.896 281.114 274.896 280.905 274.685C280.451 274.226 279.999 273.764 279.547 273.302C279.221 272.971 278.894 272.639 278.567 272.308C277.774 271.505 276.983 270.7 276.193 269.894C275.272 268.955 274.35 268.019 273.427 267.083C271.782 265.413 270.139 263.741 268.496 262.069C266.902 260.445 265.307 258.823 263.71 257.202C263.612 257.101 263.513 257.001 263.412 256.898C263.015 256.496 262.619 256.094 262.223 255.692C260.702 254.146 259.181 252.6 257.66 251.054C257.2 250.587 256.74 250.12 256.281 249.652C255.233 248.588 254.187 247.523 253.141 246.458C252.823 246.134 252.505 245.811 252.187 245.488C251.755 245.049 251.324 244.61 250.893 244.17C250.765 244.041 250.637 243.911 250.506 243.777C250.392 243.661 250.277 243.544 250.159 243.423C250.06 243.322 249.96 243.22 249.857 243.116C249.647 242.878 249.647 242.878 249.647 242.692Z" fill="#A0D638"/>
<path d="M302.03 197.35C303.83 198.823 305.215 200.943 305.51 203.297C305.671 205.538 305.693 207.715 304.778 209.801C304.7 209.979 304.622 210.158 304.542 210.342C303.455 212.576 301.722 214.076 299.42 214.876C296.761 215.638 294.485 215.003 292.108 213.676C291.352 213.173 290.65 212.602 289.942 212.031C289.945 212.257 289.948 212.483 289.951 212.715C289.961 213.555 289.967 214.395 289.972 215.235C289.975 215.598 289.979 215.961 289.983 216.325C289.99 216.847 289.993 217.37 289.996 217.892C289.998 218.054 290.001 218.216 290.004 218.383C290.004 219.262 289.975 219.874 289.392 220.579C288.957 220.683 288.957 220.683 288.477 220.66C288.239 220.654 288.239 220.654 287.996 220.648C287.561 220.579 287.561 220.579 287.011 220.207C286.942 219.791 286.942 219.791 286.942 219.262C286.94 219.062 286.938 218.862 286.937 218.656C286.938 218.435 286.939 218.215 286.94 217.987C286.939 217.756 286.938 217.525 286.937 217.286C286.935 216.65 286.936 216.015 286.938 215.379C286.939 214.714 286.938 214.05 286.937 213.385C286.936 212.269 286.937 211.153 286.94 210.037C286.943 208.746 286.942 207.454 286.939 206.163C286.936 205.055 286.936 203.948 286.937 202.84C286.938 202.178 286.938 201.516 286.936 200.854C286.935 200.116 286.937 199.379 286.94 198.641C286.939 198.42 286.938 198.2 286.937 197.973C286.938 197.773 286.94 197.573 286.942 197.366C286.942 197.192 286.942 197.017 286.942 196.837C286.965 196.7 286.988 196.563 287.011 196.421C287.576 196.039 287.728 195.995 288.374 195.991C288.513 195.988 288.653 195.985 288.796 195.982C289.342 196.071 289.571 196.188 289.942 196.607C290.013 197.231 290.013 197.231 289.988 197.943C289.981 198.179 289.974 198.416 289.968 198.659C289.955 198.931 289.955 198.931 289.942 199.209C290.053 199.087 290.164 198.966 290.278 198.841C293.547 195.382 297.986 194.536 302.03 197.35ZM291.369 200.65C289.978 202.419 289.595 204.427 289.759 206.642C290.059 208.419 290.937 210.126 292.351 211.242C293.911 212.307 295.646 212.87 297.527 212.502C299.154 212.071 300.467 211.256 301.429 209.84C302.573 207.837 302.914 205.621 302.362 203.367C301.803 201.513 300.842 199.908 299.123 198.965C296.284 197.662 293.486 198.383 291.369 200.65Z" fill="white"/>
<path d="M245.869 195.794C246.003 195.789 246.136 195.784 246.274 195.778C246.926 195.904 247.295 196.191 247.815 196.607C248.085 197.07 248.293 197.485 248.494 197.976C248.553 198.113 248.612 198.249 248.673 198.39C248.867 198.84 249.057 199.291 249.246 199.743C249.381 200.057 249.515 200.371 249.651 200.686C249.933 201.343 250.215 202.001 250.495 202.659C250.925 203.664 251.367 204.663 251.812 205.661C251.883 205.821 251.954 205.982 252.028 206.147C252.306 206.77 252.583 207.394 252.862 208.017C253.054 208.446 253.245 208.876 253.435 209.307C253.491 209.432 253.548 209.557 253.606 209.686C253.947 210.459 254.198 211.215 254.409 212.031C254.578 212.021 254.578 212.021 254.75 212.011C254.898 212.006 255.046 212.001 255.199 211.996C255.419 211.986 255.419 211.986 255.643 211.976C256.057 212.031 256.057 212.031 256.355 212.216C256.757 212.81 256.674 213.451 256.66 214.147C256.66 214.299 256.659 214.45 256.658 214.607C256.655 215.092 256.648 215.576 256.641 216.061C256.638 216.39 256.636 216.718 256.634 217.047C256.628 217.853 256.618 218.658 256.607 219.464C256.006 219.794 255.686 219.868 255.004 219.766C254.858 219.745 254.711 219.725 254.561 219.704C254.395 219.677 254.395 219.677 254.226 219.65C253.943 218.502 253.808 217.432 253.775 216.249C253.646 215.593 253.468 215.408 252.944 215.004C252.443 214.934 252.018 214.908 251.518 214.917C251.304 214.916 251.304 214.916 251.086 214.916C250.615 214.915 250.144 214.92 249.673 214.925C249.346 214.926 249.019 214.927 248.692 214.927C248.007 214.928 247.323 214.932 246.638 214.938C245.758 214.945 244.879 214.949 243.999 214.95C243.162 214.952 242.325 214.956 241.488 214.96C241.247 214.961 241.247 214.961 241.001 214.962C240.549 214.964 240.097 214.967 239.645 214.971C239.51 214.972 239.375 214.972 239.235 214.973C238.619 214.925 238.619 214.925 238.108 215.19C238.088 215.487 238.079 215.785 238.075 216.083C238.071 216.264 238.067 216.445 238.062 216.632C238.054 217.016 238.049 217.401 238.045 217.785C238.04 217.967 238.035 218.149 238.03 218.336C238.027 218.503 238.024 218.67 238.022 218.843C237.924 219.278 237.924 219.278 237.592 219.611C237.006 219.94 236.567 219.907 235.91 219.836C235.509 219.649 235.509 219.649 235.177 219.278C235.105 218.739 235.079 218.272 235.086 217.733C235.086 217.582 235.086 217.431 235.085 217.275C235.086 216.957 235.088 216.638 235.092 216.319C235.097 215.83 235.095 215.341 235.093 214.852C235.094 214.542 235.096 214.233 235.098 213.923C235.097 213.777 235.097 213.63 235.096 213.479C235.103 213.067 235.103 213.067 235.177 212.403C235.727 212.031 235.727 212.031 236.356 212.077C236.571 212.062 236.787 212.047 237.009 212.031C237.83 211.033 238.272 209.773 238.783 208.593C238.885 208.359 238.988 208.125 239.09 207.891C239.313 207.382 239.536 206.872 239.758 206.362C240.354 204.995 240.954 203.629 241.555 202.263C241.755 201.809 241.954 201.354 242.153 200.899C242.51 200.086 242.871 199.275 243.236 198.465C243.315 198.29 243.315 198.29 243.395 198.111C243.538 197.794 243.685 197.48 243.832 197.165C243.912 196.993 243.992 196.82 244.075 196.642C244.523 195.941 245.075 195.808 245.869 195.794ZM245.8 199.209C243.589 204.344 243.589 204.344 241.393 209.487C241.3 209.704 241.208 209.921 241.112 210.144C240.987 210.439 240.987 210.439 240.86 210.739C240.788 210.909 240.716 211.079 240.641 211.254C240.467 211.645 240.467 211.645 240.489 212.031C244.055 212.031 247.621 212.031 251.295 212.031C250.967 211.031 250.66 210.111 250.248 209.158C250.154 208.939 250.059 208.719 249.962 208.493C249.861 208.259 249.759 208.025 249.658 207.792C249.445 207.298 249.233 206.804 249.02 206.31C248.966 206.185 248.912 206.059 248.856 205.93C248.476 205.047 248.102 204.162 247.732 203.274C247.682 203.154 247.632 203.034 247.58 202.91C247.339 202.334 247.099 201.757 246.86 201.18C246.774 200.975 246.688 200.77 246.6 200.559C246.525 200.378 246.449 200.198 246.372 200.012C246.185 199.558 246.185 199.558 245.8 199.209Z" fill="white"/>
<path d="M389.146 196.224C390.347 197.282 391.13 198.693 391.952 200.055C392.793 201.437 393.724 202.75 394.654 204.07C395.115 204.731 395.557 205.405 395.991 206.084C396.592 205.339 397.15 204.57 397.697 203.785C397.79 203.651 397.884 203.517 397.98 203.379C399.05 201.83 400.062 200.243 401.074 198.655C401.178 198.492 401.282 198.33 401.389 198.162C401.558 197.896 401.726 197.63 401.892 197.361C402.281 196.74 402.605 196.397 403.304 196.135C404.117 195.952 405.123 195.85 405.882 196.235C405.89 198.603 405.897 200.971 405.901 203.339C405.903 204.439 405.905 205.538 405.91 206.638C405.914 207.698 405.916 208.758 405.917 209.819C405.917 210.224 405.919 210.629 405.921 211.035C405.923 211.601 405.924 212.167 405.924 212.733C405.925 212.902 405.926 213.071 405.928 213.245C405.924 214.404 405.924 214.404 405.516 214.818C405.012 214.874 405.012 214.874 404.417 214.876C404.22 214.879 404.024 214.883 403.821 214.886C403.655 214.863 403.489 214.841 403.318 214.818C402.878 214.149 402.902 213.834 402.893 213.037C402.891 212.914 402.889 212.791 402.887 212.664C402.882 212.257 402.879 211.849 402.876 211.442C402.872 211.16 402.869 210.877 402.865 210.595C402.855 209.851 402.848 209.108 402.841 208.365C402.834 207.606 402.825 206.848 402.815 206.089C402.798 204.601 402.782 203.113 402.768 201.624C402.142 202.242 401.65 202.899 401.166 203.634C400.989 203.898 400.812 204.162 400.635 204.426C400.538 204.571 400.441 204.715 400.342 204.864C399.729 205.774 399.107 206.678 398.487 207.583C398.363 207.764 398.239 207.945 398.111 208.132C397.877 208.473 397.642 208.814 397.407 209.155C397.207 209.446 397.008 209.737 396.812 210.031C396.609 210.332 396.393 210.625 396.174 210.916C396.054 210.916 395.933 210.916 395.808 210.916C395.509 210.516 395.234 210.114 394.961 209.696C394.78 209.424 394.599 209.151 394.417 208.879C394.318 208.73 394.219 208.58 394.117 208.426C393.521 207.535 392.912 206.654 392.305 205.771C391.533 204.646 390.762 203.521 389.993 202.394C389.918 202.284 389.842 202.173 389.765 202.059C389.581 201.79 389.398 201.522 389.214 201.253C389.213 201.417 389.212 201.582 389.211 201.751C389.201 203.299 389.187 204.847 389.171 206.394C389.163 207.19 389.156 207.986 389.151 208.781C389.146 209.549 389.139 210.317 389.13 211.084C389.126 211.377 389.124 211.671 389.123 211.964C389.121 212.374 389.116 212.783 389.11 213.193C389.108 213.427 389.106 213.66 389.104 213.901C389.08 214.081 389.056 214.261 389.031 214.447C388.459 214.833 388.311 214.869 387.658 214.865C387.445 214.866 387.445 214.866 387.228 214.868C386.833 214.818 386.833 214.818 386.284 214.447C386.04 213.705 386.077 212.995 386.08 212.222C386.08 212.052 386.08 211.881 386.08 211.706C386.08 211.142 386.081 210.578 386.083 210.014C386.083 209.623 386.083 209.232 386.084 208.841C386.084 207.812 386.086 206.783 386.088 205.753C386.09 204.703 386.091 203.653 386.092 202.603C386.094 200.543 386.097 198.482 386.101 196.421C387.137 195.983 388.065 195.832 389.146 196.224Z" fill="white"/>
<path d="M107.284 197.215C108.731 198.34 109.415 199.622 109.713 201.439C109.737 201.856 109.752 202.274 109.762 202.692C109.765 202.815 109.768 202.937 109.771 203.063C109.781 203.464 109.789 203.866 109.796 204.267C109.799 204.405 109.802 204.543 109.805 204.685C109.819 205.412 109.833 206.139 109.845 206.867C109.858 207.618 109.876 208.369 109.894 209.119C109.907 209.698 109.917 210.276 109.926 210.854C109.931 211.131 109.938 211.408 109.945 211.685C109.955 212.072 109.961 212.458 109.965 212.845C109.97 213.065 109.974 213.285 109.978 213.512C109.879 214.193 109.695 214.406 109.163 214.818C108.75 214.911 108.75 214.911 108.328 214.9C108.118 214.899 108.118 214.899 107.903 214.899C107.415 214.798 107.255 214.67 106.965 214.261C106.872 213.841 106.872 213.841 106.839 213.39C106.827 213.24 106.815 213.089 106.803 212.935C106.793 212.763 106.793 212.763 106.782 212.588C106.698 212.672 106.613 212.755 106.526 212.84C104.53 214.717 102.477 215.292 99.795 215.248C98.0612 215.105 96.3614 214.535 95.06 213.332C93.9254 211.972 93.5073 210.613 93.5504 208.841C93.6877 207.209 94.2246 206.068 95.4263 204.969C97.5167 203.255 100.341 202.93 102.936 203.111C104.284 203.258 105.625 203.46 106.965 203.669C106.793 202.1 106.593 200.725 105.349 199.668C103.77 198.582 102.048 198.487 100.188 198.651C99.4705 198.792 98.7765 198.998 98.0771 199.214C97.4278 199.398 96.833 199.542 96.1589 199.58C95.8119 199.368 95.8119 199.368 95.6095 199.023C95.5157 198.603 95.5157 198.603 95.4835 198.152C95.4655 197.927 95.4655 197.927 95.4471 197.697C95.4402 197.582 95.4334 197.468 95.4263 197.35C98.7804 195.323 103.967 195.023 107.284 197.215ZM97.5262 206.726C96.7328 207.655 96.4458 208.361 96.4809 209.571C96.5806 210.506 97.0072 211.078 97.67 211.694C98.6722 212.508 99.807 212.996 101.104 212.96C103.046 212.681 104.764 212.235 106.133 210.751C106.927 209.649 107.222 208.354 107.264 207.008C107.073 206.401 106.767 206.225 106.233 205.899C105.64 205.732 105.045 205.651 104.435 205.573C104.198 205.538 104.198 205.538 103.956 205.503C101.824 205.206 99.2073 205.112 97.5262 206.726Z" fill="white"/>
<path d="M203.491 197.536C205.472 199.196 206.745 201.274 207.154 203.854C207.248 205.653 207.262 207.358 206.604 209.058C206.535 209.238 206.465 209.419 206.394 209.606C205.353 211.988 203.455 213.724 201.084 214.678C198.524 215.535 195.741 215.503 193.259 214.399C190.756 213.11 189.239 211.193 188.238 208.554C187.45 206.033 187.771 203.032 188.931 200.697C190.33 198.313 192.192 196.825 194.826 196.031C197.889 195.31 200.865 195.696 203.491 197.536ZM192.462 200.652C191.208 202.241 190.647 204.25 190.853 206.27C191.243 208.538 192.295 210.317 194.149 211.659C194.951 212.115 195.792 212.495 196.714 212.588C196.825 212.6 196.937 212.612 197.051 212.624C198.871 212.728 200.659 212.115 202.037 210.912C203.434 209.461 204.104 207.726 204.234 205.717C204.194 203.633 203.581 201.821 202.201 200.277C200.902 199.01 199.383 198.35 197.584 198.245C195.507 198.35 193.895 199.111 192.462 200.652Z" fill="white"/>
<path d="M351.534 197.646C353.527 199.292 354.661 201.664 354.964 204.226C355.184 206.792 354.666 209.386 353.132 211.473C353.038 211.604 352.944 211.735 352.847 211.87C351.407 213.705 349.173 214.835 346.904 215.19C343.731 215.363 341.125 214.873 338.617 212.751C336.641 210.839 335.738 208.242 335.652 205.504C335.777 202.557 336.729 199.978 338.885 197.949C342.567 194.968 347.699 194.924 351.534 197.646ZM340.272 200.652C339.018 202.241 338.456 204.25 338.662 206.27C339.053 208.538 340.105 210.317 341.959 211.659C343.523 212.549 345.131 212.845 346.898 212.474C348.887 211.885 350.255 210.792 351.272 208.963C352.126 207.094 352.256 205.05 351.679 203.076C351.019 201.311 349.936 199.833 348.255 198.958C345.304 197.715 342.472 198.286 340.272 200.652Z" fill="white"/>
<path d="M49.5684 195.952C49.7457 195.961 49.9231 195.97 50.1057 195.98C50.2835 195.986 50.4613 195.992 50.6445 195.999C51.1017 196.05 51.1017 196.05 51.468 196.235C51.6513 197.157 51.676 198.068 51.669 199.005C51.6688 199.139 51.6685 199.273 51.6683 199.412C51.6672 199.836 51.6649 200.26 51.6626 200.684C51.6617 200.973 51.6608 201.263 51.6601 201.552C51.6581 202.258 51.6549 202.963 51.6512 203.669C52.23 203.864 52.6687 203.892 53.2767 203.901C53.4651 203.906 53.6535 203.91 53.8476 203.915C54.687 203.822 55.1317 203.501 55.6935 202.874C55.8798 202.629 55.8798 202.629 56.0699 202.379C56.6837 201.594 57.3181 200.847 57.9931 200.115C58.5879 199.468 59.1519 198.813 59.6758 198.105C60.4372 197.09 61.1843 196.328 62.4576 196.05C63.2844 195.994 64.0382 196.006 64.8387 196.235C64.5601 196.887 64.1794 197.342 63.7054 197.861C63.5573 198.025 63.4093 198.189 63.2568 198.358C63.1139 198.516 62.9711 198.674 62.8239 198.837C62.6093 199.084 62.3955 199.332 62.1828 199.58C61.7137 200.126 61.2403 200.668 60.7634 201.206C60.6264 201.362 60.4895 201.517 60.3484 201.677C60.0195 202.042 59.6876 202.398 59.3467 202.75C59.2549 202.847 59.1632 202.944 59.0686 203.043C58.8904 203.231 58.7101 203.416 58.5273 203.599C57.8957 204.269 57.679 204.785 57.6954 205.713C57.9804 206.261 57.9804 206.261 58.4281 206.735C58.5811 206.911 58.7341 207.087 58.8917 207.269C59.3497 207.763 59.8168 208.242 60.2976 208.713C60.6907 209.125 61.0392 209.563 61.393 210.01C62.1331 210.944 62.9166 211.825 63.7262 212.697C65.0218 214.097 65.0218 214.097 65.0218 214.632C63.9689 214.989 62.7339 215.011 61.702 214.563C60.2227 213.692 59.2044 212.045 58.1469 210.719C56.2793 208.172 56.2793 208.172 53.8491 206.642C53.6375 206.623 53.426 206.603 53.208 206.584C52.568 206.588 52.568 206.588 52.132 206.944C51.5557 207.798 51.6302 208.804 51.6397 209.809C51.6404 209.93 51.6411 210.051 51.6418 210.175C51.644 210.557 51.6474 210.94 51.6512 211.322C51.656 211.828 51.6597 212.334 51.6626 212.84C51.6647 213.064 51.6669 213.287 51.669 213.518C51.6512 214.075 51.6512 214.075 51.468 214.632C50.9901 214.875 50.6274 214.843 50.0943 214.841C49.9149 214.842 49.7354 214.842 49.5505 214.843C49.0869 214.818 49.0869 214.818 48.7206 214.632C48.4819 213.906 48.5089 213.214 48.5079 212.457C48.507 212.292 48.5061 212.126 48.5052 211.956C48.5025 211.408 48.5012 210.861 48.5002 210.313C48.4992 209.933 48.4981 209.553 48.4971 209.173C48.4951 208.375 48.4941 207.577 48.4934 206.78C48.4924 205.758 48.488 204.735 48.4828 203.713C48.4794 202.928 48.4785 202.142 48.4782 201.357C48.4776 200.98 48.4762 200.603 48.4737 200.226C48.4706 199.699 48.471 199.172 48.4722 198.645C48.4705 198.489 48.4688 198.333 48.467 198.173C48.4737 197.231 48.4866 196.171 49.5684 195.952Z" fill="white"/>
<path d="M15.9349 197.35C16.0683 197.427 16.2017 197.504 16.3392 197.583C16.9493 197.965 17.1998 198.234 17.4574 198.918C17.3889 199.711 17.1935 199.954 16.6554 200.497C16.1362 200.788 15.7869 200.771 15.2023 200.695C14.7251 200.396 14.7251 200.396 14.2521 199.998C12.9083 198.956 11.5264 198.315 9.80766 198.393C7.94674 198.682 6.44749 199.566 5.24011 201.013C4.02604 202.765 3.88861 204.756 4.02954 206.828C4.39351 208.727 5.28309 210.223 6.83417 211.357C8.44206 212.351 10.2085 212.716 12.0564 212.281C13.3552 211.854 14.4197 211.152 15.3854 210.173C15.9206 210.097 16.3179 210.081 16.8014 210.347C17.267 210.705 17.5604 210.957 17.6549 211.554C17.5366 212.343 17.0494 212.641 16.4665 213.134C13.9515 214.948 11.4498 215.444 8.42537 215.19C6.77558 214.901 5.48878 214.231 4.2127 213.146C4.06938 213.026 3.92607 212.905 3.77841 212.781C1.78671 210.948 0.98539 208.477 0.681865 205.827C0.564935 203.259 1.5353 200.72 3.14808 198.779C6.59573 195.135 11.8014 194.763 15.9349 197.35Z" fill="white"/>
<path d="M149.641 195.782C149.759 195.783 149.876 195.783 149.996 195.783C150.525 195.896 150.85 196.1 151.29 196.421C151.612 196.937 151.612 196.937 151.904 197.564C151.958 197.679 152.011 197.793 152.067 197.911C152.239 198.28 152.406 198.651 152.572 199.023C152.626 199.143 152.68 199.263 152.736 199.387C153.077 200.151 153.412 200.918 153.744 201.686C155.057 204.724 156.413 207.741 157.783 210.753C158.061 211.365 158.339 211.976 158.616 212.588C158.699 212.77 158.782 212.953 158.867 213.14C159.349 214.216 159.349 214.216 159.349 214.632C158.83 214.808 158.46 214.86 157.918 214.876C157.69 214.887 157.69 214.887 157.456 214.897C156.777 214.787 156.411 214.502 155.869 214.075C155.517 213.521 155.517 213.521 155.223 212.884C155.169 212.769 155.116 212.655 155.061 212.537C154.522 211.368 154.041 210.174 153.568 208.976C152.745 206.925 151.881 204.896 150.981 202.879C150.924 202.751 150.867 202.623 150.809 202.492C150.343 201.229 150.343 201.229 149.641 200.138C149.071 201.426 148.503 202.716 147.936 204.005C147.81 204.291 147.81 204.291 147.682 204.582C146.464 207.345 146.464 207.345 145.319 210.14C145.272 210.258 145.226 210.375 145.178 210.497C144.973 211.021 144.771 211.548 144.575 212.076C144.081 213.364 143.644 214.043 142.498 214.818C142.057 214.861 142.057 214.861 141.571 214.853C141.41 214.852 141.249 214.851 141.084 214.849C140.667 214.818 140.667 214.818 140.3 214.632C140.425 213.748 140.759 212.997 141.113 212.188C141.178 212.038 141.242 211.889 141.309 211.735C141.521 211.245 141.735 210.755 141.949 210.265C142.097 209.924 142.245 209.583 142.394 209.242C143.523 206.648 144.68 204.068 145.857 201.496C145.949 201.296 145.949 201.296 146.042 201.092C146.16 200.834 146.278 200.575 146.397 200.317C146.677 199.704 146.946 199.089 147.194 198.463C147.242 198.344 147.289 198.225 147.338 198.103C147.466 197.783 147.59 197.461 147.713 197.139C148.135 196.337 148.708 195.754 149.641 195.782Z" fill="white"/>
</g>
<defs>
<clipPath id="clip0_224_496">
<rect width="422" height="278" fill="white"/>
</clipPath>
</defs>
</svg>
