<svg width="105" height="111" viewBox="0 0 105 111" fill="none" xmlns="http://www.w3.org/2000/svg">
<path d="M77.2812 96.9917H27.7188C23.25 96.9917 19.5938 93.1245 19.5938 88.3979V19.6479C19.5938 14.9214 23.25 11.0542 27.7188 11.0542H77.2812C81.75 11.0542 85.4062 14.9214 85.4062 19.6479V88.3979C85.4062 93.1245 81.75 96.9917 77.2812 96.9917Z" fill="white"/>
<path d="M27.7188 19.6479H77.2812V32.5386H27.7188V19.6479ZM72.4062 49.7261H30.9688C29.5875 49.7261 28.5312 48.6089 28.5312 47.1479C28.5312 45.687 29.5875 44.5698 30.9688 44.5698H72.4062C73.7875 44.5698 74.8438 45.687 74.8438 47.1479C74.8438 48.6089 73.7875 49.7261 72.4062 49.7261ZM72.4062 62.6167H30.9688C29.5875 62.6167 28.5312 61.4995 28.5312 60.0386C28.5312 58.5776 29.5875 57.4604 30.9688 57.4604H72.4062C73.7875 57.4604 74.8438 58.5776 74.8438 60.0386C74.8438 61.4995 73.7875 62.6167 72.4062 62.6167ZM52.5 75.5073H30.9688C29.5875 75.5073 28.5312 74.3901 28.5312 72.9292C28.5312 71.4683 29.5875 70.3511 30.9688 70.3511H52.5C53.8813 70.3511 54.9375 71.4683 54.9375 72.9292C54.9375 74.3901 53.8813 75.5073 52.5 75.5073Z" fill="#C5DD6B"/>
<path d="M77.2812 99.5698H27.7188C21.8688 99.5698 17.1562 94.5854 17.1562 88.3979V19.6479C17.1562 13.4604 21.8688 8.47607 27.7188 8.47607H77.2812C83.1312 8.47607 87.8438 13.4604 87.8438 19.6479V88.3979C87.8438 94.5854 83.1312 99.5698 77.2812 99.5698ZM27.7188 13.6323C24.55 13.6323 22.0312 16.2964 22.0312 19.6479V88.3979C22.0312 91.7495 24.55 94.4136 27.7188 94.4136H77.2812C80.45 94.4136 82.9688 91.7495 82.9688 88.3979V19.6479C82.9688 16.2964 80.45 13.6323 77.2812 13.6323H27.7188Z" fill="#454B54"/>
</svg>
