<svg width="48" height="48" viewBox="0 0 48 48" fill="none" xmlns="http://www.w3.org/2000/svg">
<path d="M28 46C37.9411 46 46 37.9411 46 28C46 18.0589 37.9411 10 28 10C18.0589 10 10 18.0589 10 28C10 37.9411 18.0589 46 28 46Z" fill="black"/>
<path d="M34.942 18.079C34.984 17.941 35.004 17.812 34.999 17.698C34.985 17.366 34.757 17.125 34.22 17.125H31.82C31.214 17.125 30.935 17.492 30.771 17.859C30.771 17.859 29.275 20.938 27.551 22.968C26.992 23.556 26.708 23.541 26.405 23.541C26.243 23.541 25.833 23.345 25.833 22.807V18.054C25.833 17.418 25.674 17.125 25.162 17.125H20.901C20.528 17.125 20.334 17.418 20.334 17.713C20.334 18.324 21.157 18.471 21.251 20.184V23.505C21.251 24.312 21.111 24.458 20.808 24.458C19.992 24.458 18.386 21.708 17.311 18.104C17.078 17.395 16.845 17.125 16.239 17.125H13.816C13.117 17.125 13 17.468 13 17.834C13 18.495 13.55 22.068 16.552 26.176C18.729 29.155 21.597 30.874 24.136 30.874C25.674 30.874 25.832 30.483 25.832 29.871V27.147C25.833 26.413 26.001 26.291 26.49 26.291C26.839 26.291 27.551 26.52 28.926 28.124C30.512 29.974 30.8 30.874 31.709 30.874H34.109C34.666 30.874 34.986 30.64 34.999 30.187C35.002 30.072 34.985 29.942 34.948 29.798C34.77 29.27 33.954 27.979 32.937 26.749C32.373 26.068 31.817 25.393 31.561 25.027C31.39 24.788 31.325 24.619 31.333 24.458C31.341 24.288 31.429 24.127 31.561 23.902C31.538 23.902 34.639 19.547 34.942 18.079Z" fill="white"/>
<path d="M26.302 42.3581C25.548 42.4521 24.779 42.5001 24 42.5001C13.783 42.5001 5.5 34.2171 5.5 24.0001C5.5 19.9521 6.8 16.2081 9.005 13.1621" stroke="white" stroke-width="3" stroke-miterlimit="10" stroke-linecap="round" stroke-linejoin="round"/>
<path d="M15.9409 7.343C18.3769 6.162 21.1109 5.5 23.9999 5.5C34.2169 5.5 42.4999 13.783 42.4999 24C42.4999 31.535 37.9949 38.018 31.5319 40.902" stroke="white" stroke-width="3" stroke-miterlimit="10" stroke-linecap="round" stroke-linejoin="round"/>
</svg>
