<svg width="48" height="48" viewBox="0 0 48 48" fill="none" xmlns="http://www.w3.org/2000/svg">
<path d="M41.631 12.7329C40.394 12.7329 38.904 13.1319 36.651 14.0659L36.381 14.1779C26.762 18.1719 18.039 21.8789 11.822 24.6139C10.851 25.0419 7.89605 26.3419 8.01005 29.0609C8.05905 30.2339 8.70504 31.8329 11.498 32.7909L11.704 32.8619C12.484 33.1309 14.107 33.6909 15.772 34.1689C16.785 34.4599 17.7 34.6009 18.568 34.6009C20.073 34.6009 21.239 34.1709 22.151 33.6709C22.146 33.8229 22.15 33.9759 22.162 34.1299C22.327 36.2209 23.944 37.3679 24.91 38.0539L25.045 38.1499C26.471 39.1699 32.927 43.4349 33.658 43.9169C35.034 44.8249 36.276 45.2659 37.456 45.2659C39.312 45.2659 41.71 44.2749 42.587 39.5509C43.42 35.0709 44.382 28.8129 45.085 24.2429C45.384 22.2929 45.63 20.6939 45.787 19.7559C46.103 17.8619 46.247 15.7159 44.93 14.1619C44.374 13.5099 43.354 12.7329 41.631 12.7329Z" fill="black"/>
<path d="M42.82 8.59511C42.208 7.87511 41.08 7.01611 39.175 7.01611C37.807 7.01611 36.16 7.45711 33.669 8.49011L33.37 8.61411C29.565 10.1941 25.89 11.7321 22.421 13.1961C21.865 13.4311 21.511 13.9721 21.511 14.5761C21.511 15.6491 22.609 16.3741 23.598 15.9571C29.257 13.5691 33.77 11.6981 34.818 11.2631C36.746 10.4621 38.178 10.0171 39.175 10.0171C40.862 10.0171 41.306 11.2931 40.807 14.2891C40.498 16.1411 39.875 20.3091 39.161 24.8621C39.018 25.7721 39.721 26.5971 40.643 26.5971C41.381 26.5971 42.012 26.0591 42.126 25.3291C42.436 23.3531 42.731 21.4411 42.992 19.7421C43.323 17.5861 43.595 15.8181 43.768 14.7811C44.117 12.6861 44.277 10.3141 42.82 8.59511Z" fill="white"/>
<path d="M39.5461 30.383C38.8141 30.383 38.1881 30.911 38.0671 31.633C37.7991 33.229 37.5331 34.754 37.2791 36.118C36.7771 38.82 35.8721 39.985 34.5551 39.985C33.8311 39.985 32.9831 39.633 32.0091 38.99C30.6891 38.118 24.0251 33.711 22.5781 32.676C21.2581 31.733 19.4371 30.598 21.7211 28.364C22.5341 27.568 27.8611 22.481 32.0111 18.522C32.4541 18.099 32.0831 17.454 31.5911 17.454C31.4791 17.454 31.3601 17.488 31.2441 17.565C25.6501 21.275 17.8931 26.424 16.9061 27.095C15.9191 27.765 14.9571 28.195 13.6751 28.195C13.0201 28.195 12.2811 28.083 11.4121 27.833C9.46911 27.275 7.57211 26.61 6.83311 26.356C3.98811 25.38 4.66311 24.115 7.42611 22.899C10.4211 21.582 13.6531 20.187 16.8151 18.835C17.3671 18.599 17.7231 18.058 17.7231 17.457V17.456C17.7231 16.38 16.6181 15.655 15.6281 16.078C12.1281 17.574 8.95211 18.948 6.21711 20.151C5.14311 20.624 1.87611 22.061 2.00311 25.067C2.05711 26.364 2.77111 28.132 5.85911 29.191L6.08711 29.269C6.94911 29.566 8.74411 30.185 10.5841 30.714C11.7041 31.036 12.7161 31.192 13.6751 31.192C15.3391 31.192 16.6281 30.717 17.6361 30.164C17.6311 30.332 17.6351 30.501 17.6481 30.671C17.8301 32.983 19.6181 34.251 20.6861 35.009L20.8351 35.115C22.4121 36.243 29.5491 40.958 30.3571 41.491C31.8781 42.495 33.2511 42.982 34.5561 42.982C36.6081 42.982 39.2591 41.886 40.2291 36.664C40.4861 35.28 40.7551 33.743 41.0251 32.135C41.1791 31.22 40.4741 30.383 39.5461 30.383Z" fill="white"/>
</svg>
