<svg width="48" height="48" viewBox="0 0 48 48" fill="none" xmlns="http://www.w3.org/2000/svg">
<path d="M21 46H36C41.5 46 46 41.5 46 36V21C46 15.5 41.5 11 36 11H21C15.5 11 11 15.5 11 21V36C11 41.5 15.5 46 21 46Z" fill="black"/>
<path d="M41.5 21.1V16.5C41.5 11 37 6.5 31.5 6.5H16.5C11 6.5 6.5 11 6.5 16.5V19.5" stroke="white" stroke-width="3" stroke-miterlimit="10" stroke-linecap="round" stroke-linejoin="round"/>
<path d="M6.5 25.6001V31.5001C6.5 37.0001 11 41.5001 16.5 41.5001H31.5C37 41.5001 41.5 37.0001 41.5 31.5001V26.9001" stroke="white" stroke-width="3" stroke-miterlimit="10" stroke-linecap="round" stroke-linejoin="round"/>
<path d="M24 15.5C19.3 15.5 15.5 19.3 15.5 24C15.5 28.7 19.3 32.5 24 32.5C28.7 32.5 32.5 28.7 32.5 24C32.5 19.3 28.7 15.5 24 15.5Z" stroke="white" stroke-width="3" stroke-miterlimit="10"/>
<path d="M34 12C32.9 12 32 12.9 32 14C32 15.1 32.9 16 34 16C35.1 16 36 15.1 36 14C36 12.9 35.1 12 34 12Z" fill="white"/>
</svg>
