<svg width="48" height="48" viewBox="0 0 48 48" fill="none" xmlns="http://www.w3.org/2000/svg">
<path d="M28 45C37.3888 45 45 37.3888 45 28C45 18.6112 37.3888 11 28 11C18.6112 11 11 18.6112 11 28C11 37.3888 18.6112 45 28 45Z" fill="black"/>
<path d="M39.982 14.675C36.773 9.18602 30.817 5.49902 24 5.49902C13.783 5.49902 5.5 13.782 5.5 23.999C5.5 24.699 5.539 25.389 5.615 26.069" stroke="white" stroke-width="3" stroke-linecap="round" stroke-linejoin="round"/>
<path d="M7.8399 32.993L5.53889 41.231C5.32889 41.981 6.01989 42.673 6.77089 42.463L15.0129 40.163C17.6749 41.646 20.7369 42.499 23.9999 42.499C34.2169 42.499 42.4999 34.216 42.4999 23.999C42.4999 23.572 42.4859 23.149 42.4569 22.73" stroke="white" stroke-width="3" stroke-linecap="round" stroke-linejoin="round"/>
<path d="M33.3569 30.651C32.9589 31.767 31.0089 32.842 30.1329 32.92C29.2569 33 28.4359 33.316 24.4019 31.726C19.5469 29.812 16.4819 24.835 16.2439 24.518C16.0049 24.198 14.2939 21.929 14.2939 19.579C14.2939 17.229 15.5279 16.073 15.9659 15.597C16.4049 15.119 16.9219 15 17.2409 15C17.5589 15 17.8779 15 18.1559 15.011C18.4969 15.024 18.8739 15.042 19.2309 15.836C19.6559 16.781 20.5839 19.143 20.7029 19.382C20.8219 19.621 20.9019 19.901 20.7429 20.218C20.5839 20.536 20.5039 20.735 20.2669 21.014C20.0279 21.293 19.7659 21.636 19.5509 21.85C19.3119 22.087 19.0629 22.348 19.3409 22.824C19.6199 23.302 20.5769 24.866 21.9969 26.131C23.8229 27.758 25.3589 28.261 25.8379 28.502C26.3159 28.741 26.5939 28.701 26.8729 28.381C27.1519 28.063 28.0669 26.988 28.3849 26.51C28.7029 26.032 29.0219 26.112 29.4599 26.271C29.8979 26.43 32.2459 27.586 32.7229 27.825C33.2009 28.064 33.5189 28.183 33.6379 28.382C33.7549 28.579 33.7549 29.535 33.3569 30.651Z" fill="white"/>
</svg>
